<?xml version="1.0" encoding="utf-8"?>
<!-- Generator: Adobe Illustrator 27.5.0, SVG Export Plug-In . SVG Version: 6.00 Build 0)  -->
<svg version="1.1" id="Layer_1" xmlns="http://www.w3.org/2000/svg" xmlns:xlink="http://www.w3.org/1999/xlink" x="0px" y="0px"
	 viewBox="0 0 86 86" style="enable-background:new 0 0 86 86;" xml:space="preserve">
<style type="text/css">
	.st0{fill:url(#SVGID_1_);}
	.st1{fill:#90CAF9;}
	.st2{fill:#283593;}
	.st3{fill:#3F51B5;}
	.st4{fill:#42A5F5;}
</style>
<g>
	
		<linearGradient id="SVGID_1_" gradientUnits="userSpaceOnUse" x1="43" y1="-1406.088" x2="43" y2="-1491.8881" gradientTransform="matrix(1 0 0 -1 0 -1405.988)">
		<stop  offset="0" style="stop-color:#FCB526"/>
		<stop  offset="1" style="stop-color:#FFE14D"/>
	</linearGradient>
	<path class="st0" d="M18.7,0.1h48.6c10.3,0,18.6,8.3,18.6,18.5c0,0,0,0,0,0.1v48.6c0,10.3-8.3,18.6-18.5,18.6c0,0,0,0-0.1,0H18.7
		c-10.3,0-18.6-8.3-18.6-18.5c0,0,0,0,0-0.1V18.7C0.1,8.4,8.3,0.1,18.7,0.1C18.6,0.1,18.7,0.1,18.7,0.1z"/>
</g>
<g>
	<path class="st1" d="M34.5,55.1h-3.3v-5.5h5.5l0.6,2.1C37.7,53.4,36.3,55.1,34.5,55.1z M61.7,59.2c0,0-16.4-9.7-25-9.7V30.1
		c8,0,25-9.7,25-9.7V59.2z"/>
	<path class="st2" d="M16,39.8c0,3.8,3.1,6.9,6.9,6.9c3.8,0,6.9-3.1,6.9-6.9c0,0,0,0,0,0c0-3.8-3.1-6.9-6.9-6.9
		C19.1,32.9,16,36,16,39.8C16,39.8,16,39.8,16,39.8z"/>
	<path class="st2" d="M65.9,35.6h-4.2V44h4.2c2.4,0,4.2-1.8,4.2-4.2S68.2,35.6,65.9,35.6L65.9,35.6z M36.2,66.4
		c-1.2,0.8-3.5,1.7-6.4,1.9C29,68.5,28.2,68,27.9,67l-6.1-19c0,0,12.2-8.6,12.2,1.5c0,7.6,2.1,11.7,3.1,13.2c0.7,1,0.7,2.2,0,3.2
		C36.8,66.2,36.5,66.3,36.2,66.4z"/>
	<path class="st3" d="M22.9,49.5h13.9V30.1H22.9c-1.5,0-2.8,1.2-2.8,2.8v13.9C20.1,48.3,21.4,49.5,22.9,49.5z"/>
	<path class="st4" d="M63.1,62c-1.5,0-2.8-1.2-2.8-2.8V20.4c0-1.5,1.2-2.8,2.8-2.8s2.8,1.2,2.8,2.8v38.8C65.9,60.7,64.6,62,63.1,62z
		"/>
</g>
</svg>
